<?xml version="1.0" encoding="UTF-8"?>
<svg width="16" height="16" version="1.1" viewBox="0 0 16 16" xmlns="http://www.w3.org/2000/svg" xmlns:xlink="http://www.w3.org/1999/xlink">
 <defs>
  <linearGradient id="linearGradient1981" x1="1.3229" x2="4.2333" y1="7.5406" y2="7.5406" gradientTransform="matrix(2.7487 0 0 2.7487 3.8638 -30.227)" gradientUnits="userSpaceOnUse">
   <stop stop-color="#fff3c5" offset="0"/>
   <stop stop-color="#ffd21f" offset="1"/>
  </linearGradient>
 </defs>
 <path d="m2.2857 5.7029c0 0.368 0.20686 0.70629 0.53371 0.87314l0.35657 0.17943c0.27771 0.14057 0.57371 0.12571 0.824 0.011429v-4.3909c-0.25029-0.11543-0.54629-0.12914-0.824 0.011429l-0.35657 0.17943c-0.32686 0.16571-0.53371 0.504-0.53371 0.87314v1.7097zm3.4286 9.1543c-2.1589 0-4.5966-2.4891-4.5714-4.5714v-2.2857c0-1.624 0.64686-2.2857 1.1429-2.2857v-2.2857c-1.2571 0-2.2857 2.376-2.2857 4.5714v2.2857c0 3.1234 2.9714 5.7143 5.7143 5.7143h5.7143v-1.1429zm4.9524-14.857v9.1429h-3.653c-1.3486 0-2.4423-1.2297-2.4423-2.7474v-3.6491c0-1.5166 1.0937-2.7463 2.4423-2.7463zm1.3333 8h4v-1.2h-4zm0-5.4667h4v-1.2h-4z" fill="#6e6e6e" fill-rule="evenodd" stroke-width="1.3333"/>
 <rect transform="rotate(90)" x="7.5001" y="-13.5" width="7.9998" height="7.9998" ry="1.4545" fill="url(#linearGradient1981)" fill-rule="evenodd" stroke="#bb9824" stroke-width="1.0002"/>
 <g transform="matrix(3.5472 0 0 3.0728 4.3414 2.8462)" fill="#bb9824" stroke-width=".26904" aria-label="$">
  <path d="m0.90411 3.4163v-0.30582h0.12611q0.017866 0.14082 0.099837 0.21018 0.083023 0.069361 0.23435 0.069361h0.014713v-0.42562q-0.26168-0.0578-0.37518-0.15764-0.1135-0.099837-0.1135-0.27114 0-0.18917 0.12821-0.29741 0.12926-0.1093 0.36046-0.1156v-0.2827h0.12716v0.2827q0.1177 0.00631 0.2249 0.029426 0.10824 0.022069 0.21018 0.063055v0.28585h-0.12716q-0.016815-0.12191-0.097735-0.18917-0.07987-0.06831-0.21018-0.070412v0.39094q0.2827 0.062004 0.39725 0.1671 0.11455 0.10404 0.11455 0.29321 0 0.19442-0.13347 0.30266-0.13242 0.10719-0.37833 0.1135v0.28375h-0.12716v-0.28375q-0.1156-0.0021019-0.23435-0.025222t-0.24066-0.067259zm0.47501-1.176q-0.089328 0.01156-0.14187 0.055699-0.051495 0.044138-0.051495 0.10824 0 0.073564 0.044139 0.11875 0.045189 0.045189 0.14923 0.074615zm0.12716 1.1497q0.10614-0.01156 0.16079-0.05675 0.054648-0.04624 0.054648-0.12401 0-0.077768-0.051495-0.12821-0.050444-0.050444-0.16394-0.083022z"/>
 </g>
</svg>
