<?xml version="1.0" encoding="UTF-8"?>
<svg width="16" height="16" version="1.1" viewBox="0 0 16 16" xmlns="http://www.w3.org/2000/svg" xmlns:xlink="http://www.w3.org/1999/xlink">
 <defs>
  <linearGradient id="linearGradient1981" x1="1.3229" x2="4.2333" y1="7.5406" y2="7.5406" gradientTransform="matrix(4.9822 0 0 4.9822 -5.8413 -45.569)" gradientUnits="userSpaceOnUse">
   <stop stop-color="#fff3c5" offset="0"/>
   <stop stop-color="#ffd21f" offset="1"/>
  </linearGradient>
 </defs>
 <rect transform="rotate(90)" x=".7498" y="-15.25" width="14.5" height="14.5" ry="2.6364" fill="url(#linearGradient1981)" fill-rule="evenodd" stroke="#bb9824" stroke-width="1.4996"/>
 <g transform="matrix(5.3209 0 0 5.1214 .20686 -6.423)" fill="#bb9824" stroke-width=".26904" aria-label="$">
  <path d="m0.90411 3.4163v-0.30582h0.12611q0.017866 0.14082 0.099837 0.21018 0.083023 0.069361 0.23435 0.069361h0.014713v-0.42562q-0.26168-0.0578-0.37518-0.15764-0.1135-0.099837-0.1135-0.27114 0-0.18917 0.12821-0.29741 0.12926-0.1093 0.36046-0.1156v-0.2827h0.12716v0.2827q0.1177 0.00631 0.2249 0.029426 0.10824 0.022069 0.21018 0.063055v0.28585h-0.12716q-0.016815-0.12191-0.097735-0.18917-0.07987-0.06831-0.21018-0.070412v0.39094q0.2827 0.062004 0.39725 0.1671 0.11455 0.10404 0.11455 0.29321 0 0.19442-0.13347 0.30266-0.13242 0.10719-0.37833 0.1135v0.28375h-0.12716v-0.28375q-0.1156-0.0021019-0.23435-0.025222t-0.24066-0.067259zm0.47501-1.176q-0.089328 0.01156-0.14187 0.055699-0.051495 0.044138-0.051495 0.10824 0 0.073564 0.044139 0.11875 0.045189 0.045189 0.14923 0.074615zm0.12716 1.1497q0.10614-0.01156 0.16079-0.05675 0.054648-0.04624 0.054648-0.12401 0-0.077768-0.051495-0.12821-0.050444-0.050444-0.16394-0.083022z"/>
 </g>
</svg>
