<?xml version="1.0" encoding="UTF-8"?>
<svg width="24" height="24" version="1.1" viewBox="0 0 24 24" xml:space="preserve" xmlns="http://www.w3.org/2000/svg"><g stroke-width=".04638">
<rect x=".3939" y="7.031" width="4.998" height="9.438" fill="#ffdb56"/>
<rect x="3.817" y="7.031" width="1.576" height="9.438" fill="#fba806"/>
<rect x="9.501" y="9.391" width="4.998" height="9.438" fill="#f77935"/>
<rect x="12.92" y="9.391" width="1.576" height="9.438" fill="#d9510d"/>
<rect x="18.61" y="4.967" width="4.998" height="9.438" fill="#894ba2"/>
<rect x="22.03" y="4.967" width="1.576" height="9.438" fill="#763794"/>
<path d="m5.392 6.646h-2.17v-4.26c0-0.213-0.1763-0.3856-0.3939-0.3856-0.2176 0-0.3939 0.1726-0.3939 0.3856v4.26h-2.04c-0.2176 0-0.3939 0.1726-0.3939 0.3856v1.475c0 0.213 0.1763 0.3856 0.3939 0.3856 0.2176 0 0.3939-0.1726 0.3939-0.3856v-1.089h4.211v8.666h-4.211v-6.006c0-0.213-0.1763-0.3856-0.3939-0.3856-0.2176 0-0.3939 0.1726-0.3939 0.3856v6.391c0 0.213 0.1763 0.3856 0.3939 0.3856h2.04v4.26c0 0.213 0.1763 0.3856 0.3939 0.3856 0.2176 0 0.3939-0.1726 0.3939-0.3856v-4.26h2.17c0.2176 0 0.3939-0.1726 0.3939-0.3856v-9.438c0-0.213-0.1763-0.3856-0.3939-0.3856z"/>
<path d="m14.5 9.005h-2.17v-6.619c0-0.213-0.1763-0.3856-0.3939-0.3856-0.2176 0-0.3939 0.1726-0.3939 0.3856v6.619h-2.04c-0.2176 0-0.3939 0.1726-0.3939 0.3856v5.014c0 0.213 0.1763 0.3856 0.3939 0.3856s0.3939-0.1726 0.3939-0.3856v-4.628h4.211v8.666h-4.211v-2.467c0-0.213-0.1763-0.3856-0.3939-0.3856s-0.3939 0.1726-0.3939 0.3856v2.853c0 0.213 0.1763 0.3856 0.3939 0.3856h2.04v1.9c0 0.213 0.1763 0.3856 0.3939 0.3856 0.2176 0 0.3939-0.1726 0.3939-0.3856v-1.9h2.17c0.2176 0 0.3939-0.1726 0.3939-0.3856v-9.438c0-0.213-0.1763-0.3856-0.3939-0.3856z"/>
<path d="m23.61 4.581h-2.17v-2.195c0-0.213-0.1763-0.3856-0.3939-0.3856-0.2176 0-0.3939 0.1726-0.3939 0.3856v2.195h-2.04c-0.2176 0-0.3939 0.1726-0.3939 0.3856v2.768c0 0.213 0.1763 0.3856 0.3939 0.3856 0.2176 0 0.3939-0.1726 0.3939-0.3856v-2.383h4.211v8.666h-4.211v-4.712c0-0.213-0.1763-0.3856-0.3939-0.3856-0.2176 0-0.3939 0.1726-0.3939 0.3856v5.098c0 0.213 0.1763 0.3856 0.3939 0.3856h2.04v6.325c0 0.213 0.1763 0.3856 0.3939 0.3856 0.2176 0 0.3939-0.1726 0.3939-0.3856v-6.325h2.17c0.2176 0 0.3939-0.1726 0.3939-0.3856v-9.438c0-0.213-0.1763-0.3856-0.3939-0.3856z"/>
</g></svg>
