<?xml version="1.0" encoding="UTF-8"?>
<svg width="16" height="16" version="1.1" viewBox="0 0 16 16" xml:space="preserve" xmlns="http://www.w3.org/2000/svg"><g stroke-width=".03128">
<rect x="2.65" y="5.679" width="2.339" height="4.501" fill="#ffdb56"/>
<rect x="3.931" y="5.679" width="1.057" height="4.501" fill="#fba806"/>
<rect x="6.911" y="8.804" width="2.339" height="4.501" fill="#f77935"/>
<rect x="8.192" y="8.804" width="1.057" height="4.501" fill="#d9510d"/>
<rect x="11.17" y="4.694" width="2.339" height="4.501" fill="#894ba2"/>
<rect x="12.45" y="4.694" width="1.057" height="4.501" fill="#763794"/>
<path d="m0.2643 3.451c0.146 0 0.2643-0.1181 0.2643-0.2638v-2.923c0-0.1457-0.1184-0.2638-0.2643-0.2638s-0.2643 0.1181-0.2643 0.2638v2.923c3e-5 0.1456 0.1184 0.2637 0.2643 0.2637z"/>
<path d="m15.74 15.47h-15.21v-11.23c0-0.1457-0.1184-0.2638-0.2643-0.2638s-0.2643 0.1181-0.2643 0.2638v11.49c0 0.1457 0.1184 0.2638 0.2643 0.2638h15.47c0.146 0 0.2643-0.1181 0.2643-0.2638s-0.1184-0.2638-0.2643-0.2638z"/>
<path d="m11.17 9.459h0.8746v2.936c0 0.1457 0.1184 0.2638 0.2643 0.2638 0.146 0 0.2643-0.1181 0.2643-0.2638v-2.936h0.9355c0.146 0 0.2643-0.1181 0.2643-0.2638v-4.501c0-0.1457-0.1184-0.2638-0.2643-0.2638h-0.9355v-0.9672c0-0.1457-0.1184-0.2638-0.2643-0.2638-0.146 0-0.2643 0.1181-0.2643 0.2638v0.9672h-0.8746c-0.146 0-0.2643 0.1181-0.2643 0.2638v1.371c0 0.1457 0.1184 0.2638 0.2643 0.2638 0.146 0 0.2643-0.1181 0.2643-0.2638v-1.108h1.81v3.973h-1.81v-1.811c0-0.1457-0.1184-0.2638-0.2643-0.2638-0.146 0-0.2643 0.1181-0.2643 0.2638v2.075c0 0.1457 0.1184 0.2638 0.2643 0.2638z"/>
<path d="m6.911 13.57h0.8746v0.8266c0 0.1457 0.1184 0.2638 0.2643 0.2638s0.2643-0.1181 0.2643-0.2638v-0.8266h0.9355c0.146 0 0.2643-0.1181 0.2643-0.2638v-4.501c0-0.1457-0.1184-0.2638-0.2643-0.2638h-0.9355v-3.077c0-0.1457-0.1184-0.2637-0.2643-0.2637s-0.2643 0.1181-0.2643 0.2637v3.077h-0.8746c-0.146 0-0.2643 0.1181-0.2643 0.2638v4.501c0 0.1457 0.1184 0.2638 0.2643 0.2638zm0.2643-4.501h1.81v3.973h-1.81z"/>
<path d="m2.65 10.44h0.8746v1.952c0 0.1457 0.1184 0.2638 0.2643 0.2638 0.146 0 0.2643-0.1181 0.2643-0.2638v-1.952h0.9355c0.146 0 0.2643-0.1181 0.2643-0.2638v-4.501c0-0.1457-0.1184-0.2638-0.2643-0.2638h-0.9355v-1.952c0-0.1457-0.1184-0.2637-0.2643-0.2637-0.146 0-0.2643 0.1181-0.2643 0.2637v1.952h-0.8746c-0.146 0-0.2643 0.1181-0.2643 0.2638v2.145c0 0.1457 0.1184 0.2638 0.2643 0.2638 0.146 0 0.2643-0.1181 0.2643-0.2638v-1.881h1.81v3.973h-1.81v-1.037c0-0.1457-0.1184-0.2638-0.2643-0.2638-0.146 0-0.2643 0.1181-0.2643 0.2638v1.301c0 0.1457 0.1184 0.2638 0.2643 0.2638z"/>















</g></svg>
