<?xml version="1.0" encoding="UTF-8"?>
<svg width="16" height="16" version="1.1" viewBox="0 0 16 16" xml:space="preserve" xmlns="http://www.w3.org/2000/svg">
<circle cx="8" cy="8" r="7" fill="#273b7a" stroke-width=".02734"/>
<path d="m14.83 8.912-3.945-3.952-0.0629 0.8229-1.706-1.7-0.1253 1.661-1.651-1.661-0.2462 2.331-1.532-1.448 0.02757 0.04651-1.076-1.075-0.5311 0.099v3.132l-0.151 3.905 3.868 3.864c3.573-0.02909 6.534-2.621 7.132-6.025z" fill="#121149" stroke-width=".02851"/><g stroke-width=".03125">
<path d="m5.593 11.07c-0.1041 0-0.1886-0.0844-0.1886-0.1886v-5.684c0-0.1041 0.0844-0.1886 0.1886-0.1886 0.1041 0 0.1886 0.0844 0.1886 0.1886v5.684c0 0.1041-0.0845 0.1886-0.1886 0.1886z" fill="#e09112"/>
<path d="m5.593 5.01c-7e-3 0-0.0142 1e-3 -0.0213 2e-3v6.056c7e-3 8.1e-4 0.0139 2e-3 0.0213 2e-3 0.1041 0 0.1886-0.0844 0.1886-0.1886v-5.683c0-0.1041-0.0845-0.1886-0.1886-0.1886z" fill="#ff5419"/>
<path d="m7.539 10.1c-0.1041 0-0.1886-0.0844-0.1886-0.1886v-5.683c0-0.1041 0.0844-0.1886 0.1886-0.1886s0.1886 0.0844 0.1886 0.1886v5.684c0 0.1041-0.0845 0.1885-0.1886 0.1885z" fill="#e09112"/>
<path d="m7.539 4.04c-5e-3 0-0.01 1e-3 -0.0146 1e-3v6.058c5e-3 3.8e-4 0.01 1e-3 0.0146 1e-3 0.1041 0 0.1886-0.0844 0.1886-0.1886v-5.683c0-0.1042-0.0845-0.1886-0.1886-0.1886z" fill="#ff5419"/>
<path d="m9.485 10.1c-0.1041 0-0.1886-0.0844-0.1886-0.1886v-5.683c0-0.1041 0.0844-0.1886 0.1886-0.1886s0.1886 0.0844 0.1886 0.1886v5.684c0 0.1041-0.0844 0.1885-0.1886 0.1885z" fill="#e09112"/>
<path d="m9.485 4.04c-3e-3 0-5e-3 6.8e-4 -8e-3 8.1e-4v6.059c3e-3 9e-5 5e-3 8.1e-4 8e-3 8.1e-4 0.1041 0 0.1886-0.0844 0.1886-0.1886v-5.684c0-0.1042-0.0844-0.1886-0.1886-0.1886z" fill="#ff5419"/>
<path d="m11.43 11.07c-0.1041 0-0.1886-0.0844-0.1886-0.1886v-5.684c0-0.1041 0.0844-0.1886 0.1886-0.1886s0.1886 0.0844 0.1886 0.1886v5.684c-3e-5 0.1041-0.0844 0.1886-0.1886 0.1886z" fill="#e09112"/>
<path d="m11.43 5.01c-5e-3 0-0.01 1e-3 -0.0147 1e-3v6.058c5e-3 3.7e-4 0.01 1e-3 0.0147 1e-3 0.1041 0 0.1886-0.0844 0.1886-0.1886v-5.683c-3e-5 -0.1042-0.0844-0.1886-0.1886-0.1886z" fill="#ff5419"/>
<rect x="6.947" y="5.378" width="1.183" height="1.778" fill="#fee187"/>
<rect x="10.84" y="6.563" width="1.183" height="1.778" fill="#ffedb5"/>
<rect x="8.894" y="7.452" width="1.183" height="1.778" fill="#ffc61b"/>
<path d="m13.08 11.47-0.4799-0.4799c-0.0737-0.0737-0.193-0.0737-0.2666 0-0.0736 0.0736-0.0736 0.193 0 0.2666l0.182 0.1821h-8.363v-7.396l0.1581 0.1581c0.0737 0.0737 0.1931 0.0737 0.2666 0 0.0737-0.0737 0.0737-0.193 0-0.2666l-0.48-0.4799c-0.0737-0.0737-0.193-0.0737-0.2666 0l-0.4799 0.4799c-0.0736 0.0736-0.0736 0.193 0 0.2666 0.0369 0.0369 0.0851 0.0552 0.1334 0.0552 0.0483 0 0.0965-0.0184 0.1333-0.0552l0.1581-0.1581v7.584c0 0.1041 0.0844 0.1886 0.1886 0.1886h8.504l-0.134 0.134c-0.0737 0.0736-0.0737 0.193 0 0.2666 0.0368 0.0368 0.0851 0.0552 0.1333 0.0552 0.0483 0 0.0965-0.0184 0.1333-0.0552l0.4799-0.4799c0.0353-0.0353 0.0552-0.0833 0.0552-0.1333-1.6e-4 -0.0499-0.02-0.0979-0.0554-0.1332z" fill="#fff"/>
<path d="m13.08 11.47-0.4799-0.4799c-0.0737-0.0737-0.193-0.0737-0.2666 0-0.0736 0.0736-0.0736 0.193 0 0.2666l0.182 0.1821h-8.363v-1e-3l-0.3225 0.3225c0.0342 0.0345 0.0815 0.0559 0.1339 0.0559h8.504l-0.134 0.134c-0.0736 0.0736-0.0736 0.193 0 0.2666 0.0368 0.0368 0.0851 0.0552 0.1333 0.0552 0.0483 0 0.0965-0.0184 0.1334-0.0552l0.4799-0.4799c0.0353-0.0353 0.0552-0.0833 0.0552-0.1333 0-0.0499-0.0199-0.0979-0.0552-0.1333z" fill="#d0d1d3"/>
<rect x="5.001" y="7.668" width="1.183" height="1.778" fill="#ff5419"/>
<rect x="7.524" y="5.378" width=".6059" height="1.778" fill="#ffc61b"/>
<rect x="11.42" y="6.563" width=".6061" height="1.778" fill="#fee187"/>
<rect x="9.477" y="7.452" width=".5993" height="1.778" fill="#eaa22f"/>
<rect x="5.571" y="7.668" width=".6126" height="1.778" fill="#c92f00"/>















</g></svg>
