<?xml version="1.0" encoding="UTF-8"?>
<svg width="16" height="16" enable-background="new 0 0 215 215" version="1.1" viewBox="0 0 16 16" xmlns="http://www.w3.org/2000/svg">
 <g transform="scale(.07442)" fill="#808080">
  <path d="m206 181.6v-57.05c0-5.5-1.075-14.32-2.592-19.61l-27.4-95.53c-1.518-5.287-7.176-9.362-12.68-9.362h-22c-5.5 0-10.33 4-10.33 9.5v40.5h-48v-40.5c0-5.5-4.167-9.5-9.667-9.5h-22c-5.5 0-11.24 4.075-12.76 9.362l-27.65 95.65c-1.517 5.288-2.925 13.99-2.925 19.49v57.2c-4 0.926-8 4.961-8 9.799v13c0 5.523 4.811 10.5 10.33 10.5h72c5.522 0 9.667-4.977 9.667-10.5v-13c0-5.186-4-9.447-9-9.949v-32.55h48v32.7c-4 0.926-8 4.961-8 9.799v13c0 5.523 4.811 10.5 10.33 10.5h72c5.523 0 9.667-4.977 9.667-10.5v-13c0-5.186-4-9.447-9-9.949zm-91-57.55h-16v-49h16z" fill="#808080"/>
 </g>
</svg>
