<?xml version="1.0" encoding="UTF-8"?>
<svg width="16" height="16" version="1.1" viewBox="0 0 16 16" xml:space="preserve" xmlns="http://www.w3.org/2000/svg"><g stroke-width=".03092">
<rect x=".2626" y="4.604" width="3.332" height="6.292" fill="#ffdb56"/>
<rect x="2.544" y="4.604" width="1.05" height="6.292" fill="#fba806"/>
<rect x="6.334" y="6.177" width="3.332" height="6.292" fill="#f77935"/>
<rect x="8.616" y="6.177" width="1.05" height="6.292" fill="#d9510d"/>
<rect x="12.41" y="3.228" width="3.332" height="6.292" fill="#894ba2"/>
<rect x="14.69" y="3.228" width="1.05" height="6.292" fill="#763794"/>
<path d="m3.595 4.347h-1.447v-2.84c0-0.142-0.1175-0.2571-0.2626-0.2571-0.1451 0-0.2626 0.1151-0.2626 0.2571v2.84h-1.36c-0.1451 0-0.2626 0.1151-0.2626 0.2571v0.9834c0 0.142 0.1175 0.2571 0.2626 0.2571 0.1451 0 0.2626-0.1151 0.2626-0.2571v-0.7263h2.807v5.778h-2.807v-4.004c0-0.142-0.1175-0.2571-0.2626-0.2571-0.1451 0-0.2626 0.1151-0.2626 0.2571v4.261c0 0.142 0.1175 0.2571 0.2626 0.2571h1.36v2.84c0 0.142 0.1175 0.2571 0.2626 0.2571 0.1451 0 0.2626-0.1151 0.2626-0.2571v-2.84h1.447c0.1451 0 0.2626-0.1151 0.2626-0.2571v-6.292c0-0.142-0.1176-0.2571-0.2626-0.2571z"/>
<path d="m9.666 5.92h-1.447v-4.413c0-0.142-0.1175-0.2571-0.2626-0.2571-0.1451 0-0.2626 0.1151-0.2626 0.2571v4.413h-1.36c-0.1451 0-0.2626 0.1151-0.2626 0.2571v3.342c0 0.142 0.1175 0.2571 0.2626 0.2571s0.2626-0.1151 0.2626-0.2571v-3.085h2.807v5.778h-2.807v-1.645c0-0.142-0.1175-0.2571-0.2626-0.2571s-0.2626 0.1151-0.2626 0.2571v1.902c0 0.142 0.1175 0.2571 0.2626 0.2571h1.36v1.267c0 0.142 0.1175 0.2571 0.2626 0.2571 0.1451 0 0.2626-0.1151 0.2626-0.2571v-1.267h1.447c0.1451 0 0.2626-0.1151 0.2626-0.2571v-6.292c0-0.142-0.1175-0.2571-0.2626-0.2571z"/>
<path d="m15.74 2.971h-1.447v-1.464c0-0.142-0.1175-0.2571-0.2626-0.2571-0.1451 0-0.2626 0.1151-0.2626 0.2571v1.464h-1.36c-0.1451 0-0.2626 0.1151-0.2626 0.2571v1.846c0 0.142 0.1175 0.2571 0.2626 0.2571 0.1451 0 0.2626-0.1151 0.2626-0.2571v-1.588h2.807v5.778h-2.807v-3.141c0-0.142-0.1175-0.2571-0.2626-0.2571-0.1451 0-0.2626 0.1151-0.2626 0.2571v3.399c0 0.142 0.1175 0.2571 0.2626 0.2571h1.36v4.216c0 0.142 0.1175 0.2571 0.2626 0.2571 0.1451 0 0.2626-0.1151 0.2626-0.2571v-4.216h1.447c0.1451 0 0.2626-0.1151 0.2626-0.2571v-6.292c0-0.142-0.1176-0.2571-0.2626-0.2571z"/>















</g></svg>
